<svg width="198" height="149" viewBox="0 0 198 149" fill="none" xmlns="http://www.w3.org/2000/svg">
<path d="M135.96 92H185C190.523 92 195 87.5228 195 82V13C195 7.47715 190.523 3 185 3H13C7.47715 3 3 7.47715 3 13V82C3 87.5228 7.47715 92 13 92H67.8" stroke="white" stroke-width="6"/>
<circle cx="52" cy="48" r="7" fill="white"/>
<circle cx="52" cy="48" r="7" fill="white"/>
<circle cx="52" cy="48" r="7" fill="white"/>
<circle cx="52" cy="48" r="7" fill="white"/>
<circle cx="80" cy="48" r="7" fill="white"/>
<circle cx="80" cy="48" r="7" fill="white"/>
<circle cx="80" cy="48" r="7" fill="white"/>
<circle cx="80" cy="48" r="7" fill="white"/>
<circle cx="108" cy="48" r="7" fill="white"/>
<circle cx="108" cy="48" r="7" fill="white"/>
<circle cx="108" cy="48" r="7" fill="white"/>
<circle cx="108" cy="48" r="7" fill="white"/>
<circle cx="136" cy="48" r="7" fill="white"/>
<circle cx="136" cy="48" r="7" fill="white"/>
<circle cx="136" cy="48" r="7" fill="white"/>
<circle cx="136" cy="48" r="7" fill="white"/>
<rect x="173" y="14" width="14" height="6" rx="3" fill="white"/>
<rect x="173" y="29" width="14" height="6" rx="3" fill="white"/>
<rect x="173" y="44" width="14" height="6" rx="3" fill="white"/>
<rect x="173" y="59" width="14" height="6" rx="3" fill="white"/>
<rect x="173" y="74" width="14" height="6" rx="3" fill="white"/>
<circle cx="101" cy="109" r="37" stroke="white" stroke-width="6"/>
<path d="M83 109L94.0858 120.086C94.8668 120.867 96.1332 120.867 96.9142 120.086L120.5 96.5" stroke="white" stroke-width="6" stroke-linecap="round"/>
</svg>
