<svg width="200" height="200" viewBox="0 0 200 200" fill="none" xmlns="http://www.w3.org/2000/svg">
<rect x="129" y="158.5" width="14" height="6" rx="3" transform="rotate(90 129 158.5)" fill="#A9830B"/>
<rect x="112" y="158.5" width="14" height="6" rx="3" transform="rotate(90 112 158.5)" fill="#A9830B"/>
<rect x="94" y="158.5" width="14" height="6" rx="3" transform="rotate(90 94 158.5)" fill="#A9830B"/>
<rect x="77" y="158.5" width="14" height="6" rx="3" transform="rotate(90 77 158.5)" fill="#A9830B"/>
<path d="M141.5 180.5H58.5C57.3954 180.5 56.5 179.605 56.5 178.5V169.346C56.5 169.117 56.5359 168.897 56.6161 168.682C60.1352 159.25 73.5009 141 100 141C126.499 141 139.865 159.25 143.384 168.682C143.464 168.897 143.5 169.117 143.5 169.346V178.5C143.5 179.605 142.605 180.5 141.5 180.5Z" stroke="#A9830B" stroke-width="6"/>
<path d="M66 138H9C7.89543 138 7 137.105 7 136V130.191C7 129.964 7.03556 129.744 7.11528 129.532C9.63374 122.82 19.0042 110 37.5 110C55.9958 110 65.3663 122.82 67.8847 129.532C67.9644 129.744 68 129.964 68 130.191V136C68 137.105 67.1046 138 66 138Z" stroke="#A9830B" stroke-width="6"/>
<path d="M191 138H134C132.895 138 132 137.105 132 136V130.191C132 129.964 132.036 129.744 132.115 129.532C134.634 122.82 144.004 110 162.5 110C180.996 110 190.366 122.82 192.885 129.532C192.964 129.744 193 129.964 193 130.191V136C193 137.105 192.105 138 191 138Z" stroke="#A9830B" stroke-width="6"/>
<circle cx="100" cy="106" r="23" stroke="#A9830B" stroke-width="6"/>
<circle cx="37.5" cy="81.5" r="18.5" stroke="#A9830B" stroke-width="6"/>
<circle cx="162.5" cy="81.5" r="18.5" stroke="#A9830B" stroke-width="6"/>
<circle cx="126.5" cy="39.5" r="17.5" stroke="#A9830B" stroke-width="6"/>
<circle cx="73.5" cy="39.5" r="17.5" stroke="#A9830B" stroke-width="6"/>
</svg>